<?xml version="1.0" encoding="UTF-8" standalone="no"?>
<svg
   height="32px"
   style="shape-rendering:geometricPrecision; text-rendering:geometricPrecision; image-rendering:optimizeQuality; fill-rule:evenodd; clip-rule:evenodd"
   version="1.0"
   viewBox="0 0 13838 6857"
   width="64px"
   xml:space="preserve"
   id="svg9"
   sodipodi:docname="day.svg"
   inkscape:version="1.2.2 (732a01da63, 2022-12-09)"
   inkscape:export-filename="thumb.jpg"
   inkscape:export-xdpi="300"
   inkscape:export-ydpi="300"
   xmlns:inkscape="http://www.inkscape.org/namespaces/inkscape"
   xmlns:sodipodi="http://sodipodi.sourceforge.net/DTD/sodipodi-0.dtd"
   xmlns="http://www.w3.org/2000/svg"
   xmlns:svg="http://www.w3.org/2000/svg"><sodipodi:namedview
     id="namedview11"
     pagecolor="#ffffff"
     bordercolor="#000000"
     borderopacity="0.25"
     inkscape:showpageshadow="2"
     inkscape:pageopacity="0.0"
     inkscape:pagecheckerboard="0"
     inkscape:deskcolor="#d1d1d1"
     showgrid="false"
     inkscape:zoom="3.6875"
     inkscape:cx="20.20339"
     inkscape:cy="6.6440678"
     inkscape:window-width="1680"
     inkscape:window-height="997"
     inkscape:window-x="-8"
     inkscape:window-y="-8"
     inkscape:window-maximized="1"
     inkscape:current-layer="g1091" /><defs
     id="defs4"><style
       type="text/css"
       id="style2">
   <![CDATA[
    .fil0 {fill:#27afb7;fill-rule:nonzero}
   ]]>
  </style><style
       id="style5746">.cls-1{fill:none;}</style></defs><g
     id="Layer_x0020_1"><path
       class="fil0"
       d="m -4478.4484,-5581.6466 967.124,13.6375 477.3117,-120.4644 c 10.2284,-2.273 19.8882,-3.4094 29.548,-3.4094 v -0.5682 h 962.0102 l 298.3198,-331.2771 36.9349,-40.9124 h 54.5501 983.03494 31.821 l 29.548,17.0468 831.8863,480.1529 950.07706,-5.1141 v -8.5234 -122.7373 h 122.738 860.297 122.737 v 122.7373 1984.8213 122.7373 h -122.737 -860.297 -122.738 v -122.7373 -113.0775 H 598.10354 l -619.937996,292.6376 186.946996,196.0387 c 46.595,48.8677 44.322,126.7149 -4.546,173.3097 -11.933,11.3645 -25.002,19.3197 -39.208,25.002 l -2035.39314,845.5237 c -46.0268,19.3197 -97.7354,7.9551 -131.8286,-25.0021 l -1741.6198,-1508.646 -690.3975,-12.501 v 126.7149 122.7373 h -122.7374 -860.2975 -122.7374 v -122.7373 -1984.8213 -122.7373 h 122.7374 860.2975 122.7374 v 122.7373 0 z m 6389.159,1359.7702 v 246.0428 h -246.043 v -246.0428 z m -6880.6764,0 v 246.0428 h -246.0434 v -246.0428 z m 6143.1164,-1106.9086 -982.46806,5.1141 h -32.957 l -28.411,-16.4786 -830.7503,-479.5848 h -896.66384 l -292.0695,324.4584 -0.5678,0.5682 -1.7051,2.273 -9.6598,10.7963 -875.6398,972.8067 c -14.7737,36.9348 -11.3642,80.6884 5.6824,121.0326 15.3423,36.3666 42.0488,71.0286 76.1428,98.3035 34.6618,27.275 76.7106,47.7312 123.3052,54.55 79.5522,12.5009 175.5824,-11.3647 277.2951,-93.1895 l 7.3876,-5.114 761.4257,-526.7477 86.3704,-59.6639 72.1653,76.7108 1168.27714,1238.1694 718.8085,-339.2323 25.571,-11.9328 h 26.706 602.32206 V -5328.785 Z m 860.297,-130.6925 h -614.255 v 1738.7784 h 614.255 z m -4153.1806,2427.4711 c -50.5727,-44.8901 -55.1187,-122.1692 -10.7963,-172.7414 44.8896,-50.5723 122.1688,-55.1182 172.7409,-10.7964 l 606.868,537.5439 224.45,-93.1894 -521.6333,-462.5378 c -50.5721,-44.8901 -55.118,-122.169 -10.7963,-172.7414 44.8895,-50.5723 122.1687,-55.1181 172.7415,-10.7963 l 610.84544,541.5215 245.474,-101.7128 -499.47214,-442.6499 c -50.5728,-44.89 -55.118,-122.1691 -10.7963,-172.7413 44.8895,-50.5723 122.1687,-55.1182 172.74154,-10.7964 l 588.6841,521.6335 242.0654,-100.5764 -119.8966,-125.5784 -0.5679,0.5683 -60.8004,-64.2099 -0.5686,-0.5682 -1.7044,-1.7047 -2.273,-2.2729 -1153.50344,-1222.259 -669.3728,463.1061 c -160.8088,128.9878 -325.0263,164.7861 -466.5154,142.6253 -91.485,-14.2058 -172.7416,-52.2771 -238.0873,-104.554 -65.915,-52.277 -117.6235,-120.4645 -148.8759,-193.7659 -46.5947,-109.668 -49.4363,-233.5418 7.9547,-342.6416 l 7.3876,-14.2057 10.2277,-10.7964 709.1492,-787.5642 h -726.1959 l -476.1752,119.8961 v -0.5682 c -9.6598,2.2729 -20.4561,3.9776 -31.2524,3.4094 l -981.3305,-13.6375 v 1368.8618 l 739.2652,13.0692 7.3868,0.5683 3.9774,0.5682 6.8189,1.1364 3.4095,0.5683 3.9774,1.1364 2.8416,0.5683 14.7736,5.114 2.273,1.1364 c 11.3642,4.5459 22.1605,11.3647 31.8203,19.888 l 1722.3001,1492.1674 336.3911,-139.7841 -517.656,-458.5602 z m -2604.7588,-2427.4711 h -614.2548 v 1738.7784 h 614.2548 z"
       id="path6"
       style="fill:#3e96bc;fill-opacity:1;stroke-width:0.568228" /><g
       id="g3505"
       transform="matrix(216.21875,0,0,216.21875,41198.833,287.63518)"><path
         d="M 20.57,20 A 8.23,8.23 0 0 0 29,12 8.23,8.23 0 0 0 20.57,4 H 12 A 1,1 0 0 0 11,5 V 18 H 9 a 1,1 0 0 0 0,2 h 2 v 2 H 9 a 1,1 0 0 0 0,2 h 2 v 7 a 1,1 0 0 0 2,0 v -7 h 9 a 1,1 0 0 0 0,-2 H 13 V 20 Z M 13,6 h 7.57 A 6.24,6.24 0 0 1 27,12 6.23,6.23 0 0 1 20.57,18 H 13 Z"
         class="clr-i-outline clr-i-outline-path-1"
         id="path3493"
         style="fill:#3e96bc;fill-opacity:1" /><rect
         x="0"
         y="0"
         width="36"
         height="36"
         fill-opacity="0"
         id="rect3495" /></g><g
       id="g5770"
       transform="matrix(232.53083,0,0,229.32987,-4749.2702,-1742.2613)"><g
         data-name="Layer 2"
         id="Layer_2"
         transform="translate(37.152542,-47.847869)"><path
           d="M 16,29 A 13,13 0 1 1 29,16 13,13 0 0 1 16,29 Z M 16,5 A 11,11 0 1 0 27,16 11,11 0 0 0 16,5 Z"
           id="path5752"
           style="fill:#3e96bc;fill-opacity:1" /><path
           d="m 21.5,22.5 a 1,1 0 0 1 -0.71,-0.29 l -5.5,-5.5 A 1,1 0 0 1 15,16 V 8 a 1,1 0 0 1 2,0 v 7.59 l 5.21,5.2 a 1,1 0 0 1 0,1.42 1,1 0 0 1 -0.71,0.29 z"
           id="path5754"
           style="fill:#3e96bc;fill-opacity:1" /></g><g
         id="frame"><rect
           class="cls-1"
           height="32"
           width="32"
           id="rect5757"
           x="0"
           y="0" /></g></g><g
       id="g10819"
       transform="matrix(75.906926,0,0,75.91225,-8543.0225,-2508.8991)"
       inkscape:export-filename="g10819.jpg"
       inkscape:export-xdpi="96"
       inkscape:export-ydpi="96"><g
         id="g10558"><g
           id="g10556"><path
             d="m 49.979,47.66 c -15.222,0 -28.482,4.408 -35.239,10.881 1.415,1.996 3.451,3.834 5.986,5.459 0.275,-0.498 0.596,-0.982 0.961,-1.455 v 0 c 0,0 22.092,-5.518 23.095,10.984 -0.411,2.357 -0.677,4.639 -1.714,6.666 l 3.59,1.459 2.75,1.117 h 1.141 l 2.746,-1.117 3.593,-1.459 c -1.037,-2.027 -1.307,-4.309 -1.713,-6.668 v 0.002 c 1,-16.5 23.091,-10.984 23.095,-10.984 0.363,0.475 0.686,0.959 0.96,1.455 2.532,-1.625 4.571,-3.463 5.985,-5.459 C 78.456,52.068 65.197,47.66 49.979,47.66 Z"
             fill="#231f20"
             id="path10436" /><radialGradient
             cx="50.101101"
             cy="104.6436"
             gradientTransform="matrix(0.9823,0,0,0.9893,1.0674,0.2642)"
             gradientUnits="userSpaceOnUse"
             id="SVGID_1_"
             r="56.146599"><stop
               offset="0.0056"
               style="stop-color:#231F20"
               id="stop10438" /><stop
               offset="0.6685"
               style="stop-color:#231F20"
               id="stop10440" /><stop
               offset="0.7325"
               style="stop-color:#515051"
               id="stop10442" /><stop
               offset="0.7978"
               style="stop-color:#7D7E80"
               id="stop10444" /><stop
               offset="0.9157"
               style="stop-color:#231F20"
               id="stop10446" /><stop
               offset="0.944"
               style="stop-color:#3D3B3C"
               id="stop10448" /><stop
               offset="1"
               style="stop-color:#797B7D"
               id="stop10450" /></radialGradient><path
             d="m 15.516,58.617 c 1.244,1.633 2.934,3.168 5.031,4.574 0.212,-0.336 0.436,-0.672 0.688,-1 l 0.125,-0.164 0.201,-0.043 c 0.561,-0.131 13.804,-3.07 21.049,2.398 2.779,2.102 2.502,5.166 2.74,9.109 l 0.004,0.068 -0.012,0.066 c -0.432,2.494 -0.725,4.699 -1.655,6.586 0.163,0.406 3.325,0.779 3.438,1.066 0.238,0.168 2.212,0.742 2.461,0.918 0.209,0 0.576,0 0.783,0 0.251,-0.176 2.222,-0.75 2.459,-0.918 0.115,-0.287 3.277,-0.66 3.438,-1.066 -0.929,-1.887 -1.223,-4.092 -1.654,-6.588 L 54.6,73.561 54.606,73.493 c 0.245,-4.021 0.019,-7.127 2.902,-9.23 7.388,-5.385 20.775,-2.309 20.906,-2.273 l 0.189,0.049 0.117,0.154 c 0.251,0.33 0.476,0.664 0.685,1 2.102,-1.406 3.789,-2.941 5.034,-4.574 -7.004,-6.41 -20.131,-10.382 -34.46,-10.382 -14.333,-0.002 -27.458,3.97 -34.463,10.38 z"
             fill="url(#SVGID_1_)"
             id="path10453"
             style="fill:url(#SVGID_1_)" /><radialGradient
             cx="49.792"
             cy="50.084999"
             gradientTransform="matrix(0.9823,0,0,0.9893,1.0674,0.2642)"
             gradientUnits="userSpaceOnUse"
             id="SVGID_2_"
             r="40.141602"><stop
               offset="0.0056"
               style="stop-color:#231F20"
               id="stop10455" /><stop
               offset="0.7416"
               style="stop-color:#231F20"
               id="stop10457" /><stop
               offset="0.7978"
               style="stop-color:#7D7E80"
               id="stop10459" /><stop
               offset="0.9157"
               style="stop-color:#231F20"
               id="stop10461" /><stop
               offset="0.9321"
               style="stop-color:#262223"
               id="stop10463" /><stop
               offset="0.9465"
               style="stop-color:#302D2E"
               id="stop10465" /><stop
               offset="0.9601"
               style="stop-color:#413F40"
               id="stop10467" /><stop
               offset="0.9733"
               style="stop-color:#59585A"
               id="stop10469" /><stop
               offset="0.9861"
               style="stop-color:#78787A"
               id="stop10471" /><stop
               offset="0.9985"
               style="stop-color:#9D9FA2"
               id="stop10473" /><stop
               offset="1"
               style="stop-color:#A2A4A7"
               id="stop10475" /></radialGradient><path
             d="m 49.979,10.099 c -21.778,0 -39.433,17.78 -39.433,39.714 0,21.934 17.654,39.713 39.433,39.713 21.773,0 39.428,-17.779 39.428,-39.713 0,-21.934 -17.654,-39.714 -39.428,-39.714 z m 0,70.917 c -17.111,0 -30.981,-13.971 -30.981,-31.203 0,-17.234 13.87,-31.203 30.981,-31.203 17.109,0 30.979,13.969 30.979,31.203 0,17.232 -13.869,31.203 -30.979,31.203 z"
             fill="url(#SVGID_2_)"
             id="path10478"
             style="fill:url(#SVGID_2_)" /><radialGradient
             cx="50.348099"
             cy="88.838898"
             gradientTransform="matrix(0.9823,0,0,0.9893,1.0674,0.2642)"
             gradientUnits="userSpaceOnUse"
             id="SVGID_3_"
             r="35.215"><stop
               offset="0.0056"
               style="stop-color:#231F20"
               id="stop10480" /><stop
               offset="0.7416"
               style="stop-color:#231F20"
               id="stop10482" /><stop
               offset="0.7978"
               style="stop-color:#F1B093"
               id="stop10484" /><stop
               offset="0.9157"
               style="stop-color:#802023"
               id="stop10486" /><stop
               offset="0.9428"
               style="stop-color:#7D1F22"
               id="stop10488" /><stop
               offset="0.9665"
               style="stop-color:#721C1E"
               id="stop10490" /><stop
               offset="0.9889"
               style="stop-color:#601817"
               id="stop10492" /><stop
               offset="1"
               style="stop-color:#541513"
               id="stop10494" /></radialGradient><path
             d="m 28.076,56.205 c 5.248,-0.246 12.197,0.348 17.268,4.176 4.133,3.121 4.33,7.514 4.488,11.045 0,0 0.072,1.453 0.072,1.473 0.002,0.023 0.035,0.596 0.035,0.596 l -0.102,0.596 c 0.002,-0.016 -0.143,0.832 -0.143,0.832 -0.068,0.404 -0.135,0.787 -0.201,1.16 0.159,0.002 0.328,0.014 0.485,0.014 0.155,0 0.322,-0.012 0.481,-0.014 -0.066,-0.375 -0.135,-0.76 -0.201,-1.164 L 50.104,74.017 50.008,73.46 c 0,0 0.041,-0.541 0.043,-0.588 0.004,-0.043 0.068,-1.328 0.068,-1.328 0.177,-3.639 0.397,-8.18 4.712,-11.328 5.044,-3.676 11.9,-4.24 17.079,-4 -6.224,-2.381 -13.933,-3.709 -21.933,-3.709 -7.989,-10e-4 -15.682,1.321 -21.901,3.698 z"
             fill="url(#SVGID_3_)"
             id="path10497"
             style="fill:url(#SVGID_3_)" /><radialGradient
             cx="50.065399"
             cy="50.084"
             gradientTransform="matrix(0.9823,0,0,0.9893,1.0674,0.2642)"
             gradientUnits="userSpaceOnUse"
             id="SVGID_4_"
             r="40.142502"><stop
               offset="0.0056"
               style="stop-color:#231F20"
               id="stop10499" /><stop
               offset="0.7416"
               style="stop-color:#231F20"
               id="stop10501" /><stop
               offset="0.7978"
               style="stop-color:#F1B093"
               id="stop10503" /><stop
               offset="0.9157"
               style="stop-color:#802023"
               id="stop10505" /><stop
               offset="0.9428"
               style="stop-color:#7D1F22"
               id="stop10507" /><stop
               offset="0.9665"
               style="stop-color:#721C1E"
               id="stop10509" /><stop
               offset="0.9889"
               style="stop-color:#601817"
               id="stop10511" /><stop
               offset="1"
               style="stop-color:#541513"
               id="stop10513" /></radialGradient><path
             d="m 80.388,49.813 c 0,3.691 -0.652,7.238 -1.848,10.521 2.458,2.904 3.994722,5.938156 5.495722,9.502156 C 87.496722,63.877156 89.978,57.199 89.978,49.813 c 0,-6.887 -2.291045,-13.2543 -5.330045,-18.9303 -1.414,3.896 -2.450863,6.807962 -4.982863,9.980962 0.756,2.667 0.722908,6.040338 0.722908,8.949338 z"
             fill="url(#SVGID_4_)"
             id="path10516"
             style="fill:url(#SVGID_4_)"
             sodipodi:nodetypes="sccsccs" /><radialGradient
             cx="50.080601"
             cy="51.2285"
             gradientTransform="matrix(0.9823,0,0,0.9893,1.0674,0.2642)"
             gradientUnits="userSpaceOnUse"
             id="SVGID_5_"
             r="40.803501"><stop
               offset="0.0056"
               style="stop-color:#231F20"
               id="stop10518" /><stop
               offset="0.7416"
               style="stop-color:#231F20"
               id="stop10520" /><stop
               offset="0.7978"
               style="stop-color:#F1B093"
               id="stop10522" /><stop
               offset="0.9157"
               style="stop-color:#802023"
               id="stop10524" /><stop
               offset="0.9428"
               style="stop-color:#7D1F22"
               id="stop10526" /><stop
               offset="0.9665"
               style="stop-color:#721C1E"
               id="stop10528" /><stop
               offset="0.9889"
               style="stop-color:#601817"
               id="stop10530" /><stop
               offset="1"
               style="stop-color:#541513"
               id="stop10532" /></radialGradient><path
             d="m 19.567,49.813 c 0,-2.908 -0.03217,-6.275285 0.721828,-8.942285 -2.535,-3.173 -3.568429,-6.093015 -4.983429,-9.988015 -3.036,5.676 -5.4370019,14.705157 -5.327399,18.9303 0.118454,4.566368 2.616192,13.655254 5.792256,19.767917 C 17.268256,66.016917 18.956,63.238 21.415,60.334 20.219,57.051 19.567,53.504 19.567,49.813 Z"
             fill="url(#SVGID_5_)"
             id="path10535"
             style="fill:url(#SVGID_5_)"
             sodipodi:nodetypes="sccsccs" /><radialGradient
             cx="50.0811"
             cy="47.2285"
             gradientTransform="matrix(0.9823,0,0,0.9893,1.0674,0.2642)"
             gradientUnits="userSpaceOnUse"
             id="SVGID_6_"
             r="43.741901"><stop
               offset="0.0056"
               style="stop-color:#231F20"
               id="stop10537" /><stop
               offset="0.7416"
               style="stop-color:#231F20"
               id="stop10539" /><stop
               offset="0.7978"
               style="stop-color:#F1B093"
               id="stop10541" /><stop
               offset="0.9157"
               style="stop-color:#802023"
               id="stop10543" /><stop
               offset="0.9428"
               style="stop-color:#7D1F22"
               id="stop10545" /><stop
               offset="0.9665"
               style="stop-color:#721C1E"
               id="stop10547" /><stop
               offset="0.9889"
               style="stop-color:#601817"
               id="stop10549" /><stop
               offset="1"
               style="stop-color:#541513"
               id="stop10551" /></radialGradient><path
             d="M 67.591268,75.486119 C 62.653268,78.976119 56.454,80.441 49.979,80.441 c -6.478,0 -12.993803,-1.692051 -17.934803,-5.182051 -0.66,1.916 -0.512197,3.614051 -0.512197,5.756051 0,1.682 0.07773,2.613628 0.494732,4.166628 5.367,2.699 11.558268,4.915372 17.953268,4.915372 6.393,0 12.885934,-3.695781 18.251934,-6.394781 C 68.647934,82.149219 68.425,82.696 68.425,81.015 68.424,78.873 68.255268,77.402119 67.591268,75.486119 Z"
             fill="url(#SVGID_6_)"
             id="path10554"
             style="fill:url(#SVGID_6_)"
             sodipodi:nodetypes="cscscsccc" /></g></g><g
         id="g10682"><g
           id="g10680"><path
             d="m 49.979,47.66 c -15.222,0 -28.482,4.408 -35.239,10.881 1.415,1.996 3.451,3.834 5.986,5.459 0.275,-0.498 0.596,-0.982 0.961,-1.455 v 0 c 0,0 22.092,-5.518 23.095,10.984 -0.411,2.357 -0.677,4.639 -1.714,6.666 l 3.59,1.459 2.75,1.117 h 1.141 l 2.746,-1.117 3.593,-1.459 c -1.037,-2.027 -1.307,-4.309 -1.713,-6.668 v 0.002 c 1,-16.5 23.091,-10.984 23.095,-10.984 0.363,0.475 0.686,0.959 0.96,1.455 2.532,-1.625 4.571,-3.463 5.985,-5.459 C 78.456,52.068 65.197,47.66 49.979,47.66 Z"
             fill="#231f20"
             id="path10560" /><radialGradient
             cx="50.101101"
             cy="104.6436"
             gradientTransform="matrix(0.9823,0,0,0.9893,1.0674,0.2642)"
             gradientUnits="userSpaceOnUse"
             id="SVGID_7_"
             r="56.146599"><stop
               offset="0.0056"
               style="stop-color:#231F20"
               id="stop10562" /><stop
               offset="0.6685"
               style="stop-color:#231F20"
               id="stop10564" /><stop
               offset="0.7325"
               style="stop-color:#515051"
               id="stop10566" /><stop
               offset="0.7978"
               style="stop-color:#7D7E80"
               id="stop10568" /><stop
               offset="0.9157"
               style="stop-color:#231F20"
               id="stop10570" /><stop
               offset="0.944"
               style="stop-color:#3D3B3C"
               id="stop10572" /><stop
               offset="1"
               style="stop-color:#797B7D"
               id="stop10574" /></radialGradient><path
             d="m 15.516,58.617 c 1.244,1.633 2.934,3.168 5.031,4.574 0.212,-0.336 0.436,-0.672 0.688,-1 l 0.125,-0.164 0.201,-0.043 c 0.561,-0.131 13.804,-3.07 21.049,2.398 2.779,2.102 2.502,5.166 2.74,9.109 l 0.004,0.068 -0.012,0.066 c -0.432,2.494 -0.725,4.699 -1.655,6.586 0.163,0.406 3.325,0.779 3.438,1.066 0.238,0.168 2.212,0.742 2.461,0.918 0.209,0 0.576,0 0.783,0 0.251,-0.176 2.222,-0.75 2.459,-0.918 0.115,-0.287 3.277,-0.66 3.438,-1.066 -0.929,-1.887 -1.223,-4.092 -1.654,-6.588 L 54.6,73.561 54.606,73.493 c 0.245,-4.021 0.019,-7.127 2.902,-9.23 7.388,-5.385 20.775,-2.309 20.906,-2.273 l 0.189,0.049 0.117,0.154 c 0.251,0.33 0.476,0.664 0.685,1 2.102,-1.406 3.789,-2.941 5.034,-4.574 -7.004,-6.41 -20.131,-10.382 -34.46,-10.382 -14.333,-0.002 -27.458,3.97 -34.463,10.38 z"
             fill="url(#SVGID_7_)"
             id="path10577"
             style="fill:#3e96bc;fill-opacity:1" /><radialGradient
             cx="49.792"
             cy="50.084999"
             gradientTransform="matrix(0.9823,0,0,0.9893,1.0674,0.2642)"
             gradientUnits="userSpaceOnUse"
             id="SVGID_8_"
             r="40.141602"><stop
               offset="0.0056"
               style="stop-color:#231F20"
               id="stop10579" /><stop
               offset="0.7416"
               style="stop-color:#231F20"
               id="stop10581" /><stop
               offset="0.7978"
               style="stop-color:#7D7E80"
               id="stop10583" /><stop
               offset="0.9157"
               style="stop-color:#231F20"
               id="stop10585" /><stop
               offset="0.9321"
               style="stop-color:#262223"
               id="stop10587" /><stop
               offset="0.9465"
               style="stop-color:#302D2E"
               id="stop10589" /><stop
               offset="0.9601"
               style="stop-color:#413F40"
               id="stop10591" /><stop
               offset="0.9733"
               style="stop-color:#59585A"
               id="stop10593" /><stop
               offset="0.9861"
               style="stop-color:#78787A"
               id="stop10595" /><stop
               offset="0.9985"
               style="stop-color:#9D9FA2"
               id="stop10597" /><stop
               offset="1"
               style="stop-color:#A2A4A7"
               id="stop10599" /></radialGradient><path
             d="m 49.979,10.099 c -21.778,0 -39.433,17.78 -39.433,39.714 0,21.934 17.654,39.713 39.433,39.713 21.773,0 39.428,-17.779 39.428,-39.713 0,-21.934 -17.654,-39.714 -39.428,-39.714 z m 0,70.917 c -17.111,0 -30.981,-13.971 -30.981,-31.203 0,-17.234 13.87,-31.203 30.981,-31.203 17.109,0 30.979,13.969 30.979,31.203 0,17.232 -13.869,31.203 -30.979,31.203 z"
             fill="url(#SVGID_8_)"
             id="path10602"
             style="fill:#3e96bc;fill-opacity:1" /><radialGradient
             cx="50.348099"
             cy="88.838898"
             gradientTransform="matrix(0.9823,0,0,0.9893,1.0674,0.2642)"
             gradientUnits="userSpaceOnUse"
             id="SVGID_9_"
             r="35.215"><stop
               offset="0.0056"
               style="stop-color:#231F20"
               id="stop10604" /><stop
               offset="0.7416"
               style="stop-color:#231F20"
               id="stop10606" /><stop
               offset="0.7978"
               style="stop-color:#F1B093"
               id="stop10608" /><stop
               offset="0.9157"
               style="stop-color:#802023"
               id="stop10610" /><stop
               offset="0.9428"
               style="stop-color:#7D1F22"
               id="stop10612" /><stop
               offset="0.9665"
               style="stop-color:#721C1E"
               id="stop10614" /><stop
               offset="0.9889"
               style="stop-color:#601817"
               id="stop10616" /><stop
               offset="1"
               style="stop-color:#541513"
               id="stop10618" /></radialGradient><path
             d="m 28.076,56.205 c 5.248,-0.246 12.197,0.348 17.268,4.176 4.133,3.121 4.33,7.514 4.488,11.045 0,0 0.072,1.453 0.072,1.473 0.002,0.023 0.035,0.596 0.035,0.596 l -0.102,0.596 c 0.002,-0.016 -0.143,0.832 -0.143,0.832 -0.068,0.404 -0.135,0.787 -0.201,1.16 0.159,0.002 0.328,0.014 0.485,0.014 0.155,0 0.322,-0.012 0.481,-0.014 -0.066,-0.375 -0.135,-0.76 -0.201,-1.164 L 50.104,74.017 50.008,73.46 c 0,0 0.041,-0.541 0.043,-0.588 0.004,-0.043 0.068,-1.328 0.068,-1.328 0.177,-3.639 0.397,-8.18 4.712,-11.328 5.044,-3.676 11.9,-4.24 17.079,-4 -6.224,-2.381 -13.933,-3.709 -21.933,-3.709 -7.989,-10e-4 -15.682,1.321 -21.901,3.698 z"
             fill="url(#SVGID_9_)"
             id="path10621"
             style="fill:#3e96bc;fill-opacity:1" /><radialGradient
             cx="50.065399"
             cy="50.084"
             gradientTransform="matrix(0.9823,0,0,0.9893,1.0674,0.2642)"
             gradientUnits="userSpaceOnUse"
             id="SVGID_10_"
             r="40.142502"><stop
               offset="0.0056"
               style="stop-color:#231F20"
               id="stop10623" /><stop
               offset="0.7416"
               style="stop-color:#231F20"
               id="stop10625" /><stop
               offset="0.7978"
               style="stop-color:#F1B093"
               id="stop10627" /><stop
               offset="0.9157"
               style="stop-color:#802023"
               id="stop10629" /><stop
               offset="0.9428"
               style="stop-color:#7D1F22"
               id="stop10631" /><stop
               offset="0.9665"
               style="stop-color:#721C1E"
               id="stop10633" /><stop
               offset="0.9889"
               style="stop-color:#601817"
               id="stop10635" /><stop
               offset="1"
               style="stop-color:#541513"
               id="stop10637" /></radialGradient><path
             d="m 80.388,49.813 c 0,3.691 -0.652,7.238 -1.848,10.521 2.458,2.904 3.994722,5.938156 5.495722,9.502156 C 87.496722,63.877156 89.978,57.199 89.978,49.813 c 0,-6.887 -2.233648,-13.14749 -5.272648,-18.82349 -1.414,3.896 -2.508257,6.701161 -5.040257,9.874161 0.756,2.667 0.722905,6.040329 0.722905,8.949329 z"
             fill="url(#SVGID_10_)"
             id="path10640"
             style="fill:#3e96bc;fill-opacity:1"
             sodipodi:nodetypes="sccsccs" /><radialGradient
             cx="50.080601"
             cy="51.2285"
             gradientTransform="matrix(0.9823,0,0,0.9893,1.0674,0.2642)"
             gradientUnits="userSpaceOnUse"
             id="SVGID_11_"
             r="40.803501"><stop
               offset="0.0056"
               style="stop-color:#231F20"
               id="stop10642" /><stop
               offset="0.7416"
               style="stop-color:#231F20"
               id="stop10644" /><stop
               offset="0.7978"
               style="stop-color:#F1B093"
               id="stop10646" /><stop
               offset="0.9157"
               style="stop-color:#802023"
               id="stop10648" /><stop
               offset="0.9428"
               style="stop-color:#7D1F22"
               id="stop10650" /><stop
               offset="0.9665"
               style="stop-color:#721C1E"
               id="stop10652" /><stop
               offset="0.9889"
               style="stop-color:#601817"
               id="stop10654" /><stop
               offset="1"
               style="stop-color:#541513"
               id="stop10656" /></radialGradient><path
             d="m 19.567,49.813 c 0,-2.908 -0.03217,-6.275279 0.721826,-8.942279 -2.535,-3.173 -3.873389,-5.516353 -5.288389,-9.411353 C 11.964437,37.135368 9.978,42.926 9.978,49.813 c 0,7.387 3.263705,13.401376 6.724705,19.360376 C 18.200705,65.609376 18.956,63.238 21.415,60.334 20.219,57.051 19.567,53.504 19.567,49.813 Z"
             fill="url(#SVGID_11_)"
             id="path10659"
             style="fill:#3e96bc;fill-opacity:1"
             sodipodi:nodetypes="sccsccs" /><radialGradient
             cx="50.0811"
             cy="47.2285"
             gradientTransform="matrix(0.9823,0,0,0.9893,1.0674,0.2642)"
             gradientUnits="userSpaceOnUse"
             id="SVGID_12_"
             r="43.741901"><stop
               offset="0.0056"
               style="stop-color:#231F20"
               id="stop10661" /><stop
               offset="0.7416"
               style="stop-color:#231F20"
               id="stop10663" /><stop
               offset="0.7978"
               style="stop-color:#F1B093"
               id="stop10665" /><stop
               offset="0.9157"
               style="stop-color:#802023"
               id="stop10667" /><stop
               offset="0.9428"
               style="stop-color:#7D1F22"
               id="stop10669" /><stop
               offset="0.9665"
               style="stop-color:#721C1E"
               id="stop10671" /><stop
               offset="0.9889"
               style="stop-color:#601817"
               id="stop10673" /><stop
               offset="1"
               style="stop-color:#541513"
               id="stop10675" /></radialGradient><path
             d="M 67.591268,75.486119 C 62.653268,78.976119 56.454,80.441 49.979,80.441 c -6.478,0 -12.993803,-1.692051 -17.934803,-5.182051 -0.66,1.916 -0.512197,3.614051 -0.512197,5.756051 0,1.682 0.07773,2.613628 0.494732,4.166628 5.367,2.699 11.558268,4.915372 17.953268,4.915372 6.393,0 13.425626,-2.66492 18.791626,-5.36392 C 69.187626,83.18008 68.425,82.696 68.425,81.015 68.424,78.873 68.255268,77.402119 67.591268,75.486119 Z"
             fill="url(#SVGID_12_)"
             id="path10678"
             style="fill:#3e96bc;fill-opacity:1"
             sodipodi:nodetypes="cscscsccc" /></g></g></g><path
       d="m -3344.5622,-6398.4235 h 1012.6094 V -9512.1957 H -3344.5622 Z M 2224.7875,-9252.715 c 0,-285.4289 -227.8371,-518.9614 -506.3038,-518.9614 H 121.09217 l 240.4943,-1185.8286 7.5953,-83.034 c 0,-106.387 -43.036,-204.99 -111.3863,-275.05 l -268.342199,-272.455 -1665.740871,1709.9801 c -93.6683,93.413 -149.3605,223.1534 -149.3605,365.8682 v 2594.8095 c 0,285.4301 227.8371,518.9627 506.3046,518.9627 H 959.02577 c 210.11813,0 389.85483,-129.741 465.80223,-316.5667 l 764.5185,-1829.3411 c 22.783,-59.6805 35.441,-121.9568 35.441,-189.4215 v -495.6085 l -2.532,-2.5951 z"
       id="path13146"
       style="fill:#3e96bc;fill-opacity:1;stroke-width:256.298" /><g
       id="g1091"
       transform="matrix(200.83208,0,0,200.83208,2791.5655,-640.39186)"><g
         id="g1033"
         transform="translate(2.919758,2.6301689)">
	<g
   id="g1029">
		<g
   id="g1027">
			<path
   d="m 4.099,18.131 c -0.031,0 -0.063,-0.003 -0.094,-0.009 -0.13,-0.025 -0.245,-0.101 -0.32,-0.21 l -3.599,-5.3 c -0.154,-0.229 -0.096,-0.54 0.133,-0.695 0.228,-0.153 0.54,-0.095 0.695,0.133 l 3.317,4.887 4.886,-3.319 c 0.228,-0.153 0.538,-0.095 0.695,0.133 0.154,0.229 0.096,0.54 -0.133,0.695 l -5.3,3.6 c -0.083,0.056 -0.181,0.085 -0.28,0.085 z"
   id="path1023"
   style="fill:#3e96bc;fill-opacity:1;stroke:#3e96bc;stroke-opacity:1" />
			<path
   d="m 19.43,33.461 c -5.268,0 -10.175,-2.609 -13.127,-6.979 -0.155,-0.229 -0.095,-0.54 0.134,-0.694 0.228,-0.155 0.539,-0.095 0.694,0.134 2.766,4.095 7.363,6.539 12.299,6.539 8.178,0 14.831,-6.653 14.831,-14.831 0,-8.178 -6.653,-14.831 -14.831,-14.831 -8.178,0 -14.831,6.654 -14.831,14.831 0,0.276 -0.224,0.5 -0.5,0.5 -0.276,0 -0.5,-0.224 -0.5,-0.5 0,-8.729 7.102,-15.831 15.831,-15.831 8.729,0 15.831,7.102 15.831,15.831 0,8.729 -7.102,15.831 -15.831,15.831 z"
   id="path1025"
   style="fill:#3e96bc;fill-opacity:1;stroke:#3e96bc;stroke-opacity:1" />
		</g>
	</g>
	<path
   d="m 24.207,23.9 c -0.144,0 -0.286,-0.062 -0.385,-0.181 l -4.777,-5.77 C 18.971,17.859 18.93,17.746 18.93,17.63 V 8.043 c 0,-0.276 0.224,-0.5 0.5,-0.5 0.276,0 0.5,0.224 0.5,0.5 v 9.408 l 4.662,5.63 c 0.177,0.213 0.146,0.528 -0.065,0.704 -0.094,0.077 -0.208,0.115 -0.32,0.115 z"
   id="path1031"
   style="fill:#3e96bc;fill-opacity:1;stroke:#3e96bc;stroke-opacity:1" />
</g><g
         id="g1035">
</g><g
         id="g1037">
</g><g
         id="g1039">
</g><g
         id="g1041">
</g><g
         id="g1043">
</g><g
         id="g1045">
</g><g
         id="g1047">
</g><g
         id="g1049">
</g><g
         id="g1051">
</g><g
         id="g1053">
</g><g
         id="g1055">
</g><g
         id="g1057">
</g><g
         id="g1059">
</g><g
         id="g1061">
</g><g
         id="g1063">
</g></g></g></svg>
