<?xml version="1.0" encoding="UTF-8" standalone="no"?>
<svg
   height="32px"
   style="shape-rendering:geometricPrecision; text-rendering:geometricPrecision; image-rendering:optimizeQuality; fill-rule:evenodd; clip-rule:evenodd"
   version="1.0"
   viewBox="0 0 13838 6857"
   width="64px"
   xml:space="preserve"
   id="svg9"
   sodipodi:docname="money.svg"
   inkscape:version="1.2.2 (732a01da63, 2022-12-09)"
   xmlns:inkscape="http://www.inkscape.org/namespaces/inkscape"
   xmlns:sodipodi="http://sodipodi.sourceforge.net/DTD/sodipodi-0.dtd"
   xmlns="http://www.w3.org/2000/svg"
   xmlns:svg="http://www.w3.org/2000/svg"><sodipodi:namedview
     id="namedview11"
     pagecolor="#ffffff"
     bordercolor="#000000"
     borderopacity="0.25"
     inkscape:showpageshadow="2"
     inkscape:pageopacity="0.0"
     inkscape:pagecheckerboard="0"
     inkscape:deskcolor="#d1d1d1"
     showgrid="false"
     inkscape:zoom="7.375"
     inkscape:cx="32.067797"
     inkscape:cy="4.5423729"
     inkscape:window-width="1680"
     inkscape:window-height="997"
     inkscape:window-x="-8"
     inkscape:window-y="-8"
     inkscape:window-maximized="1"
     inkscape:current-layer="Layer_x0020_1" /><defs
     id="defs4"><style
       type="text/css"
       id="style2">
   <![CDATA[
    .fil0 {fill:#27afb7;fill-rule:nonzero}
   ]]>
  </style></defs><g
     id="Layer_x0020_1"><path
       class="fil0"
       d="m -1580.4651,-10114.856 1701.99997,24 840.00003,-212 c 18,-4 35,-6 52,-6 v -1 h 1693 l 525,-583 65,-72 h 96 1730 56 l 52,30 1464,845 1672,-9 v -15 -216 h 216 1514.0001 216 v 216 3493 216 h -216 -1514.0001 -216 v -216 -199 h -1013 l -1091,515 329,345 c 82,86 78,223 -8,305 -21,20 -44,34 -69,44 l -3582,1488 c -81,34 -172,14 -232,-44 l -3065.00003,-2655 -1214.99997,-22 v 223 216 h -216 -1514 -216 v -216 -3493 -216 h 216 1514 216 v 216 0 z m 11244,2393 v 433 h -433 v -433 z m -12109,0 v 433 h -433 v -433 z m 10811,-1947.9999 -1729,9 h -58 l -50,-29 -1462,-844.0001 h -1578 l -514,571.0001 -1,1 -3,4 -17,19 -1541,1711.9999 c -26,65 -20,142 10,213 27,64 74,125 134,173 61,48 135,84 217,96 140,22 309,-20 488,-164 l 13,-9 1340,-927 152,-105 127,135 2056,2179 1265,-597 45,-21 h 47 1060 v -2415.9999 z m 1514,-230 h -1081 v 3059.9999 h 1081 z m -7309,4271.9999 c -89,-79 -97,-215 -19,-304 79,-89 215,-97 304,-19 l 1068,946 395,-164 -918,-814 c -89,-79 -97,-215 -19,-304 79,-89 215,-97 304,-19 l 1075,953 432,-179 -879,-779 c -89,-79 -97,-215 -19,-304 79,-89 215,-97 304,-19 l 1036,918 426,-177 -211,-221 -1,1 -107,-113 -1,-1 -3,-3 -4,-4 -2030,-2151 -1178,815 c -283,227 -572,290 -821,251 -161,-25 -304,-92 -419,-184 -116,-92 -207,-212 -262,-341 -82,-193 -87,-411 14,-603 l 13,-25 18,-19 1248,-1385.9999 h -1278 l -838.00003,211 v -1 c -17,4 -36,7 -55,6 l -1726.99997,-24 v 2408.9999 l 1300.99997,23 13,1 7,1 12,2 6,1 7,2 5,1 26,9 4,2 c 20,8 39,20 56,35 l 3031.00003,2626 592,-246 -911,-807 z m -4584,-4271.9999 h -1081 v 3059.9999 h 1081 z"
       id="path6"
       style="fill:#3e96bc;fill-opacity:1" /><g
       id="g3505"
       transform="matrix(216.21875,0,0,216.21875,2528.6599,-463.4375)"><path
         d="M 20.57,20 A 8.23,8.23 0 0 0 29,12 8.23,8.23 0 0 0 20.57,4 H 12 A 1,1 0 0 0 11,5 V 18 H 9 a 1,1 0 0 0 0,2 h 2 v 2 H 9 a 1,1 0 0 0 0,2 h 2 v 7 a 1,1 0 0 0 2,0 v -7 h 9 a 1,1 0 0 0 0,-2 H 13 V 20 Z M 13,6 h 7.57 A 6.24,6.24 0 0 1 27,12 6.23,6.23 0 0 1 20.57,18 H 13 Z"
         class="clr-i-outline clr-i-outline-path-1"
         id="path3493"
         style="fill:#3e96bc;fill-opacity:1" /><rect
         x="0"
         y="0"
         width="36"
         height="36"
         fill-opacity="0"
         id="rect3495" /></g></g></svg>
