<?xml version="1.0" encoding="UTF-8" standalone="no"?>
<svg
   height="32px"
   style="shape-rendering:geometricPrecision; text-rendering:geometricPrecision; image-rendering:optimizeQuality; fill-rule:evenodd; clip-rule:evenodd"
   version="1.0"
   viewBox="0 0 13838 6857"
   width="64px"
   xml:space="preserve"
   id="svg9"
   sodipodi:docname="thumb.svg"
   inkscape:version="1.2.2 (732a01da63, 2022-12-09)"
   inkscape:export-filename="thumb.jpg"
   inkscape:export-xdpi="300"
   inkscape:export-ydpi="300"
   xmlns:inkscape="http://www.inkscape.org/namespaces/inkscape"
   xmlns:sodipodi="http://sodipodi.sourceforge.net/DTD/sodipodi-0.dtd"
   xmlns="http://www.w3.org/2000/svg"
   xmlns:svg="http://www.w3.org/2000/svg"><sodipodi:namedview
     id="namedview11"
     pagecolor="#ffffff"
     bordercolor="#000000"
     borderopacity="0.25"
     inkscape:showpageshadow="2"
     inkscape:pageopacity="0.0"
     inkscape:pagecheckerboard="0"
     inkscape:deskcolor="#d1d1d1"
     showgrid="false"
     inkscape:zoom="3.6875"
     inkscape:cx="19.661017"
     inkscape:cy="11.79661"
     inkscape:window-width="1680"
     inkscape:window-height="997"
     inkscape:window-x="-8"
     inkscape:window-y="-8"
     inkscape:window-maximized="1"
     inkscape:current-layer="Layer_x0020_1" /><defs
     id="defs4"><style
       type="text/css"
       id="style2">
   <![CDATA[
    .fil0 {fill:#27afb7;fill-rule:nonzero}
   ]]>
  </style><style
       id="style5746">.cls-1{fill:none;}</style></defs><g
     id="Layer_x0020_1"><path
       class="fil0"
       d="m 30016.021,2864.7813 1360.708,19.1874 671.56,-169.489 c 14.391,-3.1979 27.982,-4.7968 41.573,-4.7968 v -0.7995 h 1353.513 l 419.725,-466.0947 51.966,-57.5623 h 76.75 1383.094 44.771 l 41.573,23.9843 1170.433,675.5575 1336.724,-7.1953 v -11.9922 -172.6868 h 172.687 1210.407 172.687 v 172.6868 2792.5707 172.6869 h -172.687 -1210.407 -172.687 v -172.6869 -159.0958 h -809.869 l -872.229,411.7303 263.028,275.8193 c 65.557,68.755 62.359,178.2832 -6.396,243.8403 -16.789,15.9895 -35.177,27.1822 -55.164,35.1769 l -2863.724,1189.6208 c -64.758,27.1822 -137.51,11.1926 -185.478,-35.177 l -2450.395,-2122.6095 -971.364,-17.5885 v 178.2832 172.6869 h -172.687 -1210.407 -172.687 V 5658.1514 2865.5807 2692.8939 h 172.687 1210.407 172.687 v 172.6868 0 z m 8989.311,1913.1467 v 346.1732 h -346.173 V 4777.928 Z m -9680.858,0 v 346.1732 H 28978.3 V 4777.928 Z m 8643.138,-1557.3797 -1382.295,7.1953 h -46.369 l -39.974,-23.1848 -1168.835,-674.7581 h -1261.573 l -410.931,456.501 -0.799,0.7995 -2.399,3.1979 -13.591,15.1901 -1231.993,1368.7033 c -20.786,51.9659 -15.989,113.5256 7.995,170.2884 21.586,51.1665 59.161,99.9346 107.13,138.3094 48.768,38.3749 107.929,67.156 173.486,76.7498 111.927,17.5884 247.038,-15.9896 390.144,-131.1142 l 10.394,-7.1952 1071.298,-741.1146 121.52,-83.945 101.534,107.9293 1643.723,1742.0589 1011.337,-477.2874 35.977,-16.789 h 37.575 847.445 V 3220.5483 Z m 1210.407,-183.8796 h -864.234 v 2446.3974 h 864.234 z m -5843.372,3415.3627 c -71.154,-63.1587 -77.55,-171.8875 -15.19,-243.0408 63.158,-71.1534 171.887,-77.5492 243.04,-15.1901 l 853.841,756.3046 315.793,-131.1141 -733.919,-650.7737 c -71.153,-63.1587 -77.549,-171.8874 -15.19,-243.0408 63.158,-71.1534 171.887,-77.5492 243.041,-15.1901 l 859.437,761.9009 345.373,-143.1062 -702.739,-622.7921 c -71.154,-63.1586 -77.549,-171.8874 -15.19,-243.0407 63.158,-71.1534 171.887,-77.5492 243.041,-15.1901 l 828.257,733.9192 340.577,-141.5073 -168.69,-176.6842 -0.799,0.7995 -85.544,-90.3409 -0.8,-0.7994 -2.398,-2.3985 -3.198,-3.1979 -1622.937,-1719.6735 -941.783,651.5732 c -226.252,181.4811 -457.3,231.8481 -656.37,200.6686 -128.716,-19.987 -243.041,-73.5519 -334.98,-147.1037 -92.74,-73.5518 -165.492,-169.489 -209.463,-272.6214 -65.557,-154.2989 -69.555,-328.5848 11.192,-482.0842 l 10.394,-19.9869 14.39,-15.1901 997.747,-1108.074 h -1021.731 l -669.961,168.6895 v -0.7995 c -13.591,3.1979 -28.781,5.5963 -43.971,4.7969 l -1380.696,-19.1875 v 1925.9383 l 1040.119,18.388 10.393,0.7995 5.596,0.7994 9.594,1.599 4.797,0.7995 5.596,1.5989 3.998,0.7995 20.786,7.1953 3.198,1.5989 c 15.989,6.3958 31.179,15.9896 44.77,27.9817 l 2423.213,2099.4247 473.29,-196.6711 -728.323,-645.1774 z m -3664.8,-3415.3627 h -864.234 v 2446.3974 h 864.234 z"
       id="path6"
       style="fill:#3e96bc;fill-opacity:1;stroke-width:0.799476" /><g
       id="g3505"
       transform="matrix(216.21875,0,0,216.21875,41198.833,287.63518)"><path
         d="M 20.57,20 A 8.23,8.23 0 0 0 29,12 8.23,8.23 0 0 0 20.57,4 H 12 A 1,1 0 0 0 11,5 V 18 H 9 a 1,1 0 0 0 0,2 h 2 v 2 H 9 a 1,1 0 0 0 0,2 h 2 v 7 a 1,1 0 0 0 2,0 v -7 h 9 a 1,1 0 0 0 0,-2 H 13 V 20 Z M 13,6 h 7.57 A 6.24,6.24 0 0 1 27,12 6.23,6.23 0 0 1 20.57,18 H 13 Z"
         class="clr-i-outline clr-i-outline-path-1"
         id="path3493"
         style="fill:#3e96bc;fill-opacity:1" /><rect
         x="0"
         y="0"
         width="36"
         height="36"
         fill-opacity="0"
         id="rect3495" /></g><g
       id="g5770"
       transform="matrix(255.14163,0,0,251.62941,8372.5663,11572.678)"><g
         data-name="Layer 2"
         id="Layer_2"
         transform="translate(37.152542,-47.847869)"><path
           d="M 16,29 A 13,13 0 1 1 29,16 13,13 0 0 1 16,29 Z M 16,5 A 11,11 0 1 0 27,16 11,11 0 0 0 16,5 Z"
           id="path5752"
           style="fill:#3e96bc;fill-opacity:1" /><path
           d="m 21.5,22.5 a 1,1 0 0 1 -0.71,-0.29 l -5.5,-5.5 A 1,1 0 0 1 15,16 V 8 a 1,1 0 0 1 2,0 v 7.59 l 5.21,5.2 a 1,1 0 0 1 0,1.42 1,1 0 0 1 -0.71,0.29 z"
           id="path5754"
           style="fill:#3e96bc;fill-opacity:1" /></g><g
         id="frame"><rect
           class="cls-1"
           height="32"
           width="32"
           id="rect5757"
           x="0"
           y="0" /></g></g><g
       id="g10819"
       transform="matrix(75.906926,0,0,75.91225,-8543.0225,-2508.8991)"
       inkscape:export-filename="g10819.jpg"
       inkscape:export-xdpi="96"
       inkscape:export-ydpi="96"><g
         id="g10558"><g
           id="g10556"><path
             d="m 49.979,47.66 c -15.222,0 -28.482,4.408 -35.239,10.881 1.415,1.996 3.451,3.834 5.986,5.459 0.275,-0.498 0.596,-0.982 0.961,-1.455 v 0 c 0,0 22.092,-5.518 23.095,10.984 -0.411,2.357 -0.677,4.639 -1.714,6.666 l 3.59,1.459 2.75,1.117 h 1.141 l 2.746,-1.117 3.593,-1.459 c -1.037,-2.027 -1.307,-4.309 -1.713,-6.668 v 0.002 c 1,-16.5 23.091,-10.984 23.095,-10.984 0.363,0.475 0.686,0.959 0.96,1.455 2.532,-1.625 4.571,-3.463 5.985,-5.459 C 78.456,52.068 65.197,47.66 49.979,47.66 Z"
             fill="#231f20"
             id="path10436" /><radialGradient
             cx="50.101101"
             cy="104.6436"
             gradientTransform="matrix(0.9823,0,0,0.9893,1.0674,0.2642)"
             gradientUnits="userSpaceOnUse"
             id="SVGID_1_"
             r="56.146599"><stop
               offset="0.0056"
               style="stop-color:#231F20"
               id="stop10438" /><stop
               offset="0.6685"
               style="stop-color:#231F20"
               id="stop10440" /><stop
               offset="0.7325"
               style="stop-color:#515051"
               id="stop10442" /><stop
               offset="0.7978"
               style="stop-color:#7D7E80"
               id="stop10444" /><stop
               offset="0.9157"
               style="stop-color:#231F20"
               id="stop10446" /><stop
               offset="0.944"
               style="stop-color:#3D3B3C"
               id="stop10448" /><stop
               offset="1"
               style="stop-color:#797B7D"
               id="stop10450" /></radialGradient><path
             d="m 15.516,58.617 c 1.244,1.633 2.934,3.168 5.031,4.574 0.212,-0.336 0.436,-0.672 0.688,-1 l 0.125,-0.164 0.201,-0.043 c 0.561,-0.131 13.804,-3.07 21.049,2.398 2.779,2.102 2.502,5.166 2.74,9.109 l 0.004,0.068 -0.012,0.066 c -0.432,2.494 -0.725,4.699 -1.655,6.586 0.163,0.406 3.325,0.779 3.438,1.066 0.238,0.168 2.212,0.742 2.461,0.918 0.209,0 0.576,0 0.783,0 0.251,-0.176 2.222,-0.75 2.459,-0.918 0.115,-0.287 3.277,-0.66 3.438,-1.066 -0.929,-1.887 -1.223,-4.092 -1.654,-6.588 L 54.6,73.561 54.606,73.493 c 0.245,-4.021 0.019,-7.127 2.902,-9.23 7.388,-5.385 20.775,-2.309 20.906,-2.273 l 0.189,0.049 0.117,0.154 c 0.251,0.33 0.476,0.664 0.685,1 2.102,-1.406 3.789,-2.941 5.034,-4.574 -7.004,-6.41 -20.131,-10.382 -34.46,-10.382 -14.333,-0.002 -27.458,3.97 -34.463,10.38 z"
             fill="url(#SVGID_1_)"
             id="path10453"
             style="fill:url(#SVGID_1_)" /><radialGradient
             cx="49.792"
             cy="50.084999"
             gradientTransform="matrix(0.9823,0,0,0.9893,1.0674,0.2642)"
             gradientUnits="userSpaceOnUse"
             id="SVGID_2_"
             r="40.141602"><stop
               offset="0.0056"
               style="stop-color:#231F20"
               id="stop10455" /><stop
               offset="0.7416"
               style="stop-color:#231F20"
               id="stop10457" /><stop
               offset="0.7978"
               style="stop-color:#7D7E80"
               id="stop10459" /><stop
               offset="0.9157"
               style="stop-color:#231F20"
               id="stop10461" /><stop
               offset="0.9321"
               style="stop-color:#262223"
               id="stop10463" /><stop
               offset="0.9465"
               style="stop-color:#302D2E"
               id="stop10465" /><stop
               offset="0.9601"
               style="stop-color:#413F40"
               id="stop10467" /><stop
               offset="0.9733"
               style="stop-color:#59585A"
               id="stop10469" /><stop
               offset="0.9861"
               style="stop-color:#78787A"
               id="stop10471" /><stop
               offset="0.9985"
               style="stop-color:#9D9FA2"
               id="stop10473" /><stop
               offset="1"
               style="stop-color:#A2A4A7"
               id="stop10475" /></radialGradient><path
             d="m 49.979,10.099 c -21.778,0 -39.433,17.78 -39.433,39.714 0,21.934 17.654,39.713 39.433,39.713 21.773,0 39.428,-17.779 39.428,-39.713 0,-21.934 -17.654,-39.714 -39.428,-39.714 z m 0,70.917 c -17.111,0 -30.981,-13.971 -30.981,-31.203 0,-17.234 13.87,-31.203 30.981,-31.203 17.109,0 30.979,13.969 30.979,31.203 0,17.232 -13.869,31.203 -30.979,31.203 z"
             fill="url(#SVGID_2_)"
             id="path10478"
             style="fill:url(#SVGID_2_)" /><radialGradient
             cx="50.348099"
             cy="88.838898"
             gradientTransform="matrix(0.9823,0,0,0.9893,1.0674,0.2642)"
             gradientUnits="userSpaceOnUse"
             id="SVGID_3_"
             r="35.215"><stop
               offset="0.0056"
               style="stop-color:#231F20"
               id="stop10480" /><stop
               offset="0.7416"
               style="stop-color:#231F20"
               id="stop10482" /><stop
               offset="0.7978"
               style="stop-color:#F1B093"
               id="stop10484" /><stop
               offset="0.9157"
               style="stop-color:#802023"
               id="stop10486" /><stop
               offset="0.9428"
               style="stop-color:#7D1F22"
               id="stop10488" /><stop
               offset="0.9665"
               style="stop-color:#721C1E"
               id="stop10490" /><stop
               offset="0.9889"
               style="stop-color:#601817"
               id="stop10492" /><stop
               offset="1"
               style="stop-color:#541513"
               id="stop10494" /></radialGradient><path
             d="m 28.076,56.205 c 5.248,-0.246 12.197,0.348 17.268,4.176 4.133,3.121 4.33,7.514 4.488,11.045 0,0 0.072,1.453 0.072,1.473 0.002,0.023 0.035,0.596 0.035,0.596 l -0.102,0.596 c 0.002,-0.016 -0.143,0.832 -0.143,0.832 -0.068,0.404 -0.135,0.787 -0.201,1.16 0.159,0.002 0.328,0.014 0.485,0.014 0.155,0 0.322,-0.012 0.481,-0.014 -0.066,-0.375 -0.135,-0.76 -0.201,-1.164 L 50.104,74.017 50.008,73.46 c 0,0 0.041,-0.541 0.043,-0.588 0.004,-0.043 0.068,-1.328 0.068,-1.328 0.177,-3.639 0.397,-8.18 4.712,-11.328 5.044,-3.676 11.9,-4.24 17.079,-4 -6.224,-2.381 -13.933,-3.709 -21.933,-3.709 -7.989,-10e-4 -15.682,1.321 -21.901,3.698 z"
             fill="url(#SVGID_3_)"
             id="path10497"
             style="fill:url(#SVGID_3_)" /><radialGradient
             cx="50.065399"
             cy="50.084"
             gradientTransform="matrix(0.9823,0,0,0.9893,1.0674,0.2642)"
             gradientUnits="userSpaceOnUse"
             id="SVGID_4_"
             r="40.142502"><stop
               offset="0.0056"
               style="stop-color:#231F20"
               id="stop10499" /><stop
               offset="0.7416"
               style="stop-color:#231F20"
               id="stop10501" /><stop
               offset="0.7978"
               style="stop-color:#F1B093"
               id="stop10503" /><stop
               offset="0.9157"
               style="stop-color:#802023"
               id="stop10505" /><stop
               offset="0.9428"
               style="stop-color:#7D1F22"
               id="stop10507" /><stop
               offset="0.9665"
               style="stop-color:#721C1E"
               id="stop10509" /><stop
               offset="0.9889"
               style="stop-color:#601817"
               id="stop10511" /><stop
               offset="1"
               style="stop-color:#541513"
               id="stop10513" /></radialGradient><path
             d="m 80.388,49.813 c 0,3.691 -0.652,7.238 -1.848,10.521 2.458,2.904 3.994722,5.938156 5.495722,9.502156 C 87.496722,63.877156 89.978,57.199 89.978,49.813 c 0,-6.887 -2.291045,-13.2543 -5.330045,-18.9303 -1.414,3.896 -2.450863,6.807962 -4.982863,9.980962 0.756,2.667 0.722908,6.040338 0.722908,8.949338 z"
             fill="url(#SVGID_4_)"
             id="path10516"
             style="fill:url(#SVGID_4_)"
             sodipodi:nodetypes="sccsccs" /><radialGradient
             cx="50.080601"
             cy="51.2285"
             gradientTransform="matrix(0.9823,0,0,0.9893,1.0674,0.2642)"
             gradientUnits="userSpaceOnUse"
             id="SVGID_5_"
             r="40.803501"><stop
               offset="0.0056"
               style="stop-color:#231F20"
               id="stop10518" /><stop
               offset="0.7416"
               style="stop-color:#231F20"
               id="stop10520" /><stop
               offset="0.7978"
               style="stop-color:#F1B093"
               id="stop10522" /><stop
               offset="0.9157"
               style="stop-color:#802023"
               id="stop10524" /><stop
               offset="0.9428"
               style="stop-color:#7D1F22"
               id="stop10526" /><stop
               offset="0.9665"
               style="stop-color:#721C1E"
               id="stop10528" /><stop
               offset="0.9889"
               style="stop-color:#601817"
               id="stop10530" /><stop
               offset="1"
               style="stop-color:#541513"
               id="stop10532" /></radialGradient><path
             d="m 19.567,49.813 c 0,-2.908 -0.03217,-6.275285 0.721828,-8.942285 -2.535,-3.173 -3.568429,-6.093015 -4.983429,-9.988015 -3.036,5.676 -5.4370019,14.705157 -5.327399,18.9303 0.118454,4.566368 2.616192,13.655254 5.792256,19.767917 C 17.268256,66.016917 18.956,63.238 21.415,60.334 20.219,57.051 19.567,53.504 19.567,49.813 Z"
             fill="url(#SVGID_5_)"
             id="path10535"
             style="fill:url(#SVGID_5_)"
             sodipodi:nodetypes="sccsccs" /><radialGradient
             cx="50.0811"
             cy="47.2285"
             gradientTransform="matrix(0.9823,0,0,0.9893,1.0674,0.2642)"
             gradientUnits="userSpaceOnUse"
             id="SVGID_6_"
             r="43.741901"><stop
               offset="0.0056"
               style="stop-color:#231F20"
               id="stop10537" /><stop
               offset="0.7416"
               style="stop-color:#231F20"
               id="stop10539" /><stop
               offset="0.7978"
               style="stop-color:#F1B093"
               id="stop10541" /><stop
               offset="0.9157"
               style="stop-color:#802023"
               id="stop10543" /><stop
               offset="0.9428"
               style="stop-color:#7D1F22"
               id="stop10545" /><stop
               offset="0.9665"
               style="stop-color:#721C1E"
               id="stop10547" /><stop
               offset="0.9889"
               style="stop-color:#601817"
               id="stop10549" /><stop
               offset="1"
               style="stop-color:#541513"
               id="stop10551" /></radialGradient><path
             d="M 67.591268,75.486119 C 62.653268,78.976119 56.454,80.441 49.979,80.441 c -6.478,0 -12.993803,-1.692051 -17.934803,-5.182051 -0.66,1.916 -0.512197,3.614051 -0.512197,5.756051 0,1.682 0.07773,2.613628 0.494732,4.166628 5.367,2.699 11.558268,4.915372 17.953268,4.915372 6.393,0 12.885934,-3.695781 18.251934,-6.394781 C 68.647934,82.149219 68.425,82.696 68.425,81.015 68.424,78.873 68.255268,77.402119 67.591268,75.486119 Z"
             fill="url(#SVGID_6_)"
             id="path10554"
             style="fill:url(#SVGID_6_)"
             sodipodi:nodetypes="cscscsccc" /></g></g><g
         id="g10682"><g
           id="g10680"><path
             d="m 49.979,47.66 c -15.222,0 -28.482,4.408 -35.239,10.881 1.415,1.996 3.451,3.834 5.986,5.459 0.275,-0.498 0.596,-0.982 0.961,-1.455 v 0 c 0,0 22.092,-5.518 23.095,10.984 -0.411,2.357 -0.677,4.639 -1.714,6.666 l 3.59,1.459 2.75,1.117 h 1.141 l 2.746,-1.117 3.593,-1.459 c -1.037,-2.027 -1.307,-4.309 -1.713,-6.668 v 0.002 c 1,-16.5 23.091,-10.984 23.095,-10.984 0.363,0.475 0.686,0.959 0.96,1.455 2.532,-1.625 4.571,-3.463 5.985,-5.459 C 78.456,52.068 65.197,47.66 49.979,47.66 Z"
             fill="#231f20"
             id="path10560" /><radialGradient
             cx="50.101101"
             cy="104.6436"
             gradientTransform="matrix(0.9823,0,0,0.9893,1.0674,0.2642)"
             gradientUnits="userSpaceOnUse"
             id="SVGID_7_"
             r="56.146599"><stop
               offset="0.0056"
               style="stop-color:#231F20"
               id="stop10562" /><stop
               offset="0.6685"
               style="stop-color:#231F20"
               id="stop10564" /><stop
               offset="0.7325"
               style="stop-color:#515051"
               id="stop10566" /><stop
               offset="0.7978"
               style="stop-color:#7D7E80"
               id="stop10568" /><stop
               offset="0.9157"
               style="stop-color:#231F20"
               id="stop10570" /><stop
               offset="0.944"
               style="stop-color:#3D3B3C"
               id="stop10572" /><stop
               offset="1"
               style="stop-color:#797B7D"
               id="stop10574" /></radialGradient><path
             d="m 15.516,58.617 c 1.244,1.633 2.934,3.168 5.031,4.574 0.212,-0.336 0.436,-0.672 0.688,-1 l 0.125,-0.164 0.201,-0.043 c 0.561,-0.131 13.804,-3.07 21.049,2.398 2.779,2.102 2.502,5.166 2.74,9.109 l 0.004,0.068 -0.012,0.066 c -0.432,2.494 -0.725,4.699 -1.655,6.586 0.163,0.406 3.325,0.779 3.438,1.066 0.238,0.168 2.212,0.742 2.461,0.918 0.209,0 0.576,0 0.783,0 0.251,-0.176 2.222,-0.75 2.459,-0.918 0.115,-0.287 3.277,-0.66 3.438,-1.066 -0.929,-1.887 -1.223,-4.092 -1.654,-6.588 L 54.6,73.561 54.606,73.493 c 0.245,-4.021 0.019,-7.127 2.902,-9.23 7.388,-5.385 20.775,-2.309 20.906,-2.273 l 0.189,0.049 0.117,0.154 c 0.251,0.33 0.476,0.664 0.685,1 2.102,-1.406 3.789,-2.941 5.034,-4.574 -7.004,-6.41 -20.131,-10.382 -34.46,-10.382 -14.333,-0.002 -27.458,3.97 -34.463,10.38 z"
             fill="url(#SVGID_7_)"
             id="path10577"
             style="fill:#3e96bc;fill-opacity:1" /><radialGradient
             cx="49.792"
             cy="50.084999"
             gradientTransform="matrix(0.9823,0,0,0.9893,1.0674,0.2642)"
             gradientUnits="userSpaceOnUse"
             id="SVGID_8_"
             r="40.141602"><stop
               offset="0.0056"
               style="stop-color:#231F20"
               id="stop10579" /><stop
               offset="0.7416"
               style="stop-color:#231F20"
               id="stop10581" /><stop
               offset="0.7978"
               style="stop-color:#7D7E80"
               id="stop10583" /><stop
               offset="0.9157"
               style="stop-color:#231F20"
               id="stop10585" /><stop
               offset="0.9321"
               style="stop-color:#262223"
               id="stop10587" /><stop
               offset="0.9465"
               style="stop-color:#302D2E"
               id="stop10589" /><stop
               offset="0.9601"
               style="stop-color:#413F40"
               id="stop10591" /><stop
               offset="0.9733"
               style="stop-color:#59585A"
               id="stop10593" /><stop
               offset="0.9861"
               style="stop-color:#78787A"
               id="stop10595" /><stop
               offset="0.9985"
               style="stop-color:#9D9FA2"
               id="stop10597" /><stop
               offset="1"
               style="stop-color:#A2A4A7"
               id="stop10599" /></radialGradient><path
             d="m 49.979,10.099 c -21.778,0 -39.433,17.78 -39.433,39.714 0,21.934 17.654,39.713 39.433,39.713 21.773,0 39.428,-17.779 39.428,-39.713 0,-21.934 -17.654,-39.714 -39.428,-39.714 z m 0,70.917 c -17.111,0 -30.981,-13.971 -30.981,-31.203 0,-17.234 13.87,-31.203 30.981,-31.203 17.109,0 30.979,13.969 30.979,31.203 0,17.232 -13.869,31.203 -30.979,31.203 z"
             fill="url(#SVGID_8_)"
             id="path10602"
             style="fill:#3e96bc;fill-opacity:1" /><radialGradient
             cx="50.348099"
             cy="88.838898"
             gradientTransform="matrix(0.9823,0,0,0.9893,1.0674,0.2642)"
             gradientUnits="userSpaceOnUse"
             id="SVGID_9_"
             r="35.215"><stop
               offset="0.0056"
               style="stop-color:#231F20"
               id="stop10604" /><stop
               offset="0.7416"
               style="stop-color:#231F20"
               id="stop10606" /><stop
               offset="0.7978"
               style="stop-color:#F1B093"
               id="stop10608" /><stop
               offset="0.9157"
               style="stop-color:#802023"
               id="stop10610" /><stop
               offset="0.9428"
               style="stop-color:#7D1F22"
               id="stop10612" /><stop
               offset="0.9665"
               style="stop-color:#721C1E"
               id="stop10614" /><stop
               offset="0.9889"
               style="stop-color:#601817"
               id="stop10616" /><stop
               offset="1"
               style="stop-color:#541513"
               id="stop10618" /></radialGradient><path
             d="m 28.076,56.205 c 5.248,-0.246 12.197,0.348 17.268,4.176 4.133,3.121 4.33,7.514 4.488,11.045 0,0 0.072,1.453 0.072,1.473 0.002,0.023 0.035,0.596 0.035,0.596 l -0.102,0.596 c 0.002,-0.016 -0.143,0.832 -0.143,0.832 -0.068,0.404 -0.135,0.787 -0.201,1.16 0.159,0.002 0.328,0.014 0.485,0.014 0.155,0 0.322,-0.012 0.481,-0.014 -0.066,-0.375 -0.135,-0.76 -0.201,-1.164 L 50.104,74.017 50.008,73.46 c 0,0 0.041,-0.541 0.043,-0.588 0.004,-0.043 0.068,-1.328 0.068,-1.328 0.177,-3.639 0.397,-8.18 4.712,-11.328 5.044,-3.676 11.9,-4.24 17.079,-4 -6.224,-2.381 -13.933,-3.709 -21.933,-3.709 -7.989,-10e-4 -15.682,1.321 -21.901,3.698 z"
             fill="url(#SVGID_9_)"
             id="path10621"
             style="fill:#3e96bc;fill-opacity:1" /><radialGradient
             cx="50.065399"
             cy="50.084"
             gradientTransform="matrix(0.9823,0,0,0.9893,1.0674,0.2642)"
             gradientUnits="userSpaceOnUse"
             id="SVGID_10_"
             r="40.142502"><stop
               offset="0.0056"
               style="stop-color:#231F20"
               id="stop10623" /><stop
               offset="0.7416"
               style="stop-color:#231F20"
               id="stop10625" /><stop
               offset="0.7978"
               style="stop-color:#F1B093"
               id="stop10627" /><stop
               offset="0.9157"
               style="stop-color:#802023"
               id="stop10629" /><stop
               offset="0.9428"
               style="stop-color:#7D1F22"
               id="stop10631" /><stop
               offset="0.9665"
               style="stop-color:#721C1E"
               id="stop10633" /><stop
               offset="0.9889"
               style="stop-color:#601817"
               id="stop10635" /><stop
               offset="1"
               style="stop-color:#541513"
               id="stop10637" /></radialGradient><path
             d="m 80.388,49.813 c 0,3.691 -0.652,7.238 -1.848,10.521 2.458,2.904 3.994722,5.938156 5.495722,9.502156 C 87.496722,63.877156 89.978,57.199 89.978,49.813 c 0,-6.887 -2.233648,-13.14749 -5.272648,-18.82349 -1.414,3.896 -2.508257,6.701161 -5.040257,9.874161 0.756,2.667 0.722905,6.040329 0.722905,8.949329 z"
             fill="url(#SVGID_10_)"
             id="path10640"
             style="fill:#3e96bc;fill-opacity:1"
             sodipodi:nodetypes="sccsccs" /><radialGradient
             cx="50.080601"
             cy="51.2285"
             gradientTransform="matrix(0.9823,0,0,0.9893,1.0674,0.2642)"
             gradientUnits="userSpaceOnUse"
             id="SVGID_11_"
             r="40.803501"><stop
               offset="0.0056"
               style="stop-color:#231F20"
               id="stop10642" /><stop
               offset="0.7416"
               style="stop-color:#231F20"
               id="stop10644" /><stop
               offset="0.7978"
               style="stop-color:#F1B093"
               id="stop10646" /><stop
               offset="0.9157"
               style="stop-color:#802023"
               id="stop10648" /><stop
               offset="0.9428"
               style="stop-color:#7D1F22"
               id="stop10650" /><stop
               offset="0.9665"
               style="stop-color:#721C1E"
               id="stop10652" /><stop
               offset="0.9889"
               style="stop-color:#601817"
               id="stop10654" /><stop
               offset="1"
               style="stop-color:#541513"
               id="stop10656" /></radialGradient><path
             d="m 19.567,49.813 c 0,-2.908 -0.03217,-6.275279 0.721826,-8.942279 -2.535,-3.173 -3.873389,-5.516353 -5.288389,-9.411353 C 11.964437,37.135368 9.978,42.926 9.978,49.813 c 0,7.387 3.263705,13.401376 6.724705,19.360376 C 18.200705,65.609376 18.956,63.238 21.415,60.334 20.219,57.051 19.567,53.504 19.567,49.813 Z"
             fill="url(#SVGID_11_)"
             id="path10659"
             style="fill:#3e96bc;fill-opacity:1"
             sodipodi:nodetypes="sccsccs" /><radialGradient
             cx="50.0811"
             cy="47.2285"
             gradientTransform="matrix(0.9823,0,0,0.9893,1.0674,0.2642)"
             gradientUnits="userSpaceOnUse"
             id="SVGID_12_"
             r="43.741901"><stop
               offset="0.0056"
               style="stop-color:#231F20"
               id="stop10661" /><stop
               offset="0.7416"
               style="stop-color:#231F20"
               id="stop10663" /><stop
               offset="0.7978"
               style="stop-color:#F1B093"
               id="stop10665" /><stop
               offset="0.9157"
               style="stop-color:#802023"
               id="stop10667" /><stop
               offset="0.9428"
               style="stop-color:#7D1F22"
               id="stop10669" /><stop
               offset="0.9665"
               style="stop-color:#721C1E"
               id="stop10671" /><stop
               offset="0.9889"
               style="stop-color:#601817"
               id="stop10673" /><stop
               offset="1"
               style="stop-color:#541513"
               id="stop10675" /></radialGradient><path
             d="M 67.591268,75.486119 C 62.653268,78.976119 56.454,80.441 49.979,80.441 c -6.478,0 -12.993803,-1.692051 -17.934803,-5.182051 -0.66,1.916 -0.512197,3.614051 -0.512197,5.756051 0,1.682 0.07773,2.613628 0.494732,4.166628 5.367,2.699 11.558268,4.915372 17.953268,4.915372 6.393,0 13.425626,-2.66492 18.791626,-5.36392 C 69.187626,83.18008 68.425,82.696 68.425,81.015 68.424,78.873 68.255268,77.402119 67.591268,75.486119 Z"
             fill="url(#SVGID_12_)"
             id="path10678"
             style="fill:#3e96bc;fill-opacity:1"
             sodipodi:nodetypes="cscscsccc" /></g></g></g><path
       d="M 4521.7193,5387.3307 H 5534.3287 V 2273.5585 H 4521.7193 Z M 10091.069,2533.0392 c 0,-285.4289 -227.8371,-518.9614 -506.3038,-518.9614 H 7987.3737 l 240.4943,-1185.82837 7.5953,-83.0337 c 0,-106.3873 -43.036,-204.9904 -111.3863,-275.0501 L 7855.7348,197.71053 6189.9939,1907.6903 c -93.6683,93.413 -149.3605,223.1534 -149.3605,365.8682 V 4868.368 c 0,285.4301 227.8371,518.9627 506.3046,518.9627 h 2278.3693 c 210.1181,0 389.8548,-129.741 465.8022,-316.5667 l 764.5185,-1829.3411 c 22.783,-59.6805 35.441,-121.9568 35.441,-189.4215 v -495.6085 l -2.532,-2.5951 z"
       id="path13146"
       style="fill:#3e96bc;fill-opacity:1;stroke-width:256.298" /></g></svg>
