<svg width="42" height="42" viewBox="0 0 42 42" fill="none" xmlns="http://www.w3.org/2000/svg">
<circle cx="21" cy="21" r="21" fill="#037E8C"/>
<path fill-rule="evenodd" clip-rule="evenodd" d="M31.0605 13.9394C31.3417 14.2207 31.4997 14.6022 31.4997 14.9999C31.4997 15.3977 31.3417 15.7791 31.0605 16.0604L19.0605 28.0604C18.7792 28.3416 18.3977 28.4996 18 28.4996C17.6022 28.4996 17.2208 28.3416 16.9395 28.0604L10.9395 22.0604C10.6662 21.7775 10.5151 21.3986 10.5185 21.0053C10.5219 20.612 10.6796 20.2358 10.9578 19.9577C11.2359 19.6796 11.6121 19.5218 12.0054 19.5184C12.3987 19.515 12.7776 19.6662 13.0605 19.9394L18 24.8789L28.9395 13.9394C29.2208 13.6582 29.6022 13.5002 30 13.5002C30.3977 13.5002 30.7792 13.6582 31.0605 13.9394Z" fill="white"/>
</svg>
